<?xml version="1.0" encoding="UTF-8"?>
<svg id="Artwork" xmlns="http://www.w3.org/2000/svg" width="361" height="361" version="1.1" viewBox="0 0 361 361">
  <!-- Generator: Adobe Illustrator 29.8.1, SVG Export Plug-In . SVG Version: 2.1.1 Build 2)  -->
  <defs>
    <style>
      .st0 {
        fill: #fff;
      }
    </style>
  </defs>
  <path class="st0" d="M360.4704,116.612c-.0242-4.2175-.0729-8.4341-.1871-12.6503-.249-9.1876-.7898-18.455-2.423-27.5406-1.6568-9.217-4.3607-17.7952-8.6234-26.1696-4.1896-8.2308-9.6641-15.763-16.1948-22.2936-6.5306-6.5307-14.0629-12.0052-22.2936-16.1948-8.3744-4.2626-16.9526-6.9666-26.1696-8.6234-9.0856-1.6332-18.353-2.174-27.5405-2.423-4.2162-.1143-8.4328-.163-12.6503-.1872-5.0072-.0316-10.0136-.0295-15.0209-.0295h-97.7343c-5.0072,0-10.0137-.0021-15.0209.0295-4.2175.0242-8.434.0729-12.6502.1872-9.1876.249-18.455.7897-27.5406,2.423-9.217,1.6569-17.7952,4.3608-26.1696,8.6234-8.2308,4.1896-15.7629,9.6641-22.2936,16.1948s-12.0052,14.0628-16.1948,22.2936c-4.2626,8.3743-6.9666,16.9526-8.6234,26.1696-1.6332,9.0856-2.174,18.353-2.423,27.5406-.1143,4.2162-.1629,8.4328-.1871,12.6503-.0316,5.0072-.0295,10.0136-.0295,15.0208v97.7343c0,5.0072-.0021,10.0136.0295,15.0208.0242,4.2175.0729,8.4341.1871,12.6503.249,9.1876.7898,18.455,2.423,27.5406,1.6569,9.217,4.3608,17.7952,8.6234,26.1696,4.1896,8.2308,9.6641,15.763,16.1948,22.2936s14.0629,12.0052,22.2936,16.1948c8.3744,4.2626,16.9526,6.9666,26.1696,8.6234,9.0856,1.6332,18.353,2.174,27.5406,2.423,4.2162.1143,8.4327.163,12.6502.1872,5.0072.0316,10.0137.0295,15.0209.0295h97.7343c5.0073,0,10.0137.0021,15.0209-.0295,4.2175-.0242,8.434-.0729,12.6503-.1872,9.1876-.249,18.455-.7897,27.5405-2.423,9.217-1.6569,17.7952-4.3608,26.1696-8.6234,8.2308-4.1896,15.763-9.6641,22.2936-16.1948,6.5306-6.5306,12.0052-14.0628,16.1948-22.2936,4.2627-8.3743,6.9666-16.9526,8.6234-26.1696,1.6332-9.0856,2.174-18.353,2.423-27.5406.1143-4.2162.1629-8.4328.1871-12.6503.0317-5.0072.0295-10.0136.0295-15.0208v-97.7343c0-5.0072.0021-10.0136-.0295-15.0208ZM204.3088,304.1392c-4.3857,14.7061-10.9648,20.5107-24.1226,20.5107-13.2866,0-19.8657-5.8047-24.1226-20.5107-3.0957-10.5776-9.417-48.5029-9.417-71.8516,0-14.5767,12.771-29.7983,33.5396-29.7983s33.4106,15.2217,33.4106,29.7983c0,23.3486-6.3208,61.2739-9.2881,71.8516ZM148.5818,159.791c0-17.1567,14.061-31.2178,31.6045-31.2178,17.2856,0,31.3467,14.061,31.3467,31.2178,0,17.5435-14.061,31.7334-31.3467,31.7334-17.5435,0-31.6045-14.1899-31.6045-31.7334ZM180.0573,96.0659c-36.8936,0-66.8208,29.9272-66.8208,66.6919,0,20.6396,9.417,39.0864,24.3804,51.2119-2.709,4.2573-4.3857,8.9009-5.2886,13.9321-20.2529-14.5771-33.2817-38.4414-33.2817-65.144,0-44.6333,36.2485-81.0107,81.0107-81.0107,44.6333,0,81.0107,36.3774,81.0107,81.0107,0,26.7026-13.2871,50.438-33.1523,65.0146-.9033-5.4175-2.709-9.2876-5.5469-13.9316,14.8345-11.9966,24.3804-30.5723,24.3804-51.083,0-36.7646-29.9277-66.6919-66.6919-66.6919ZM222.8845,288.2725c.7739-5.2886,1.6772-10.9648,2.3223-16.6406,41.2793-17.4146,70.3037-58.1777,70.3037-105.7783,0-63.7246-51.728-115.3237-115.3242-115.3237-63.854,0-115.582,51.5991-115.582,115.3237,0,47.6006,29.0244,88.4927,70.4331,105.7783.645,5.5469,1.5479,11.3521,2.3218,16.5117-50.6963-17.5435-86.9443-65.5308-86.9443-122.29,0-71.5938,58.0488-129.6426,129.7715-129.6426,71.5938,0,129.5137,58.0488,129.5137,129.6426,0,56.6304-36.377,104.7466-86.8154,122.4189Z"/>
</svg>